<svg width="100" height="100" viewBox="0 0 100 100" fill="none" xmlns="http://www.w3.org/2000/svg">
<path d="M100 50C100 77.6142 77.6142 100 50 100C22.3858 100 0 77.6142 0 50C0 22.3858 22.3858 0 50 0C77.6142 0 100 22.3858 100 50Z" fill="#163752"/>
<path fill-rule="evenodd" clip-rule="evenodd" d="M98.1816 63.4087C96.4601 69.6081 93.5741 75.323 89.7741 80.3031H84.8485V57.8647C90.4129 60.7466 94.9822 62.5273 98.1816 63.4087ZM68.1821 80.3031H81.8182V56.2385C77.6853 53.945 73.0971 51.0942 68.1821 47.6171V80.3031ZM65.1518 45.4231V80.3031H34.8487L34.8487 17.6334C39.457 22.7499 44.0248 27.3665 48.4847 31.5195L48.4846 80.303H51.515L51.515 34.286C56.2292 38.5045 60.8024 42.2021 65.1518 45.4231ZM98.9032 60.4643C99.6218 57.0896 99.9999 53.589 99.9999 50C99.9999 22.3858 77.6141 3.05176e-05 49.9999 3.05176e-05C25.3791 3.05176e-05 4.91468 17.7955 0.767221 41.2259C6.99596 36.2281 17.0599 27.2017 30.3032 13.0385V11.3636C30.3032 10.1084 31.3208 9.09089 32.576 9.09089C33.8311 9.09089 34.8487 10.1084 34.8487 11.3636V13.0685C62.3872 44.5549 88.6645 57.6149 98.9032 60.4643ZM30.3032 17.4592L30.3032 80.3031H16.6665L16.6665 31.1805C20.7109 27.3219 25.2695 22.7686 30.3032 17.4592ZM13.6362 34.0324L13.6362 80.3031H10.2257C3.8101 71.8952 -9.15527e-05 61.3926 -9.15527e-05 50C-9.15527e-05 48.4877 0.0670521 46.991 0.198521 45.5129C3.3759 43.1092 7.90108 39.354 13.6362 34.0324ZM30.3032 84.8485H14.1449C18.7116 89.5464 24.1937 93.3498 30.3032 95.9709V84.8485ZM34.8487 97.6633C39.6278 99.1811 44.7182 100 49.9999 100C64.063 100 76.7701 94.1941 85.855 84.8485H34.8487V97.6633Z" fill="#F6FCFF"/>
</svg>
